<svg width="3168" height="1899" viewBox="0 0 3168 1899" fill="none" xmlns="http://www.w3.org/2000/svg">
<path d="M682.626 1733.87H658.049L629.032 1643.82H653.609L670.258 1698.22L686.908 1643.82H709.899L726.548 1698.22L743.197 1643.82H767.933L738.916 1733.87H714.18L698.482 1684.83L682.626 1733.87ZM825.648 1733.87H801.071L772.054 1643.82H796.631L813.28 1698.22L829.93 1643.82H852.921L869.57 1698.22L886.219 1643.82H910.954L881.938 1733.87H857.202L841.504 1684.83L825.648 1733.87ZM968.67 1733.87H944.093L915.076 1643.82H939.653L956.302 1698.22L972.951 1643.82H995.942L1012.59 1698.22L1029.24 1643.82H1053.98L1024.96 1733.87H1000.22L984.526 1684.83L968.67 1733.87ZM1064.84 1730.94C1062.14 1728.1 1060.79 1724.61 1060.79 1720.48C1060.79 1716.35 1062.14 1712.87 1064.84 1710.02C1067.53 1707.17 1070.84 1705.75 1074.75 1705.75C1078.66 1705.75 1081.96 1707.17 1084.66 1710.02C1087.35 1712.87 1088.7 1716.35 1088.7 1720.48C1088.7 1724.61 1087.35 1728.1 1084.66 1730.94C1081.96 1733.79 1078.66 1735.21 1074.75 1735.21C1070.84 1735.21 1067.53 1733.79 1064.84 1730.94ZM1098.05 1616.87H1142.93V1733.87H1119.14V1639.13H1098.06V1616.87H1098.05ZM1237.27 1616.87V1639.47H1193.51V1659.05C1196.78 1658.05 1200.54 1657.54 1204.77 1657.54C1215.44 1657.54 1224.64 1660.95 1232.36 1667.75C1240.07 1674.56 1243.93 1683.74 1243.93 1695.29C1243.93 1706.84 1239.94 1716.38 1231.96 1723.91C1223.98 1731.45 1214.12 1735.21 1202.39 1735.21C1187.38 1735.21 1174.85 1729.35 1164.81 1717.63L1177.81 1698.55C1178.76 1699.56 1180.03 1700.78 1181.62 1702.24C1183.2 1703.69 1186.11 1705.61 1190.34 1708.01C1194.57 1710.41 1198.79 1711.61 1203.02 1711.61C1207.25 1711.61 1211 1710.27 1214.28 1707.59C1217.56 1704.91 1219.2 1700.95 1219.2 1695.71C1219.2 1690.46 1217.42 1686.42 1213.88 1683.57C1210.34 1680.73 1205.77 1679.3 1200.17 1679.3C1194.57 1679.3 1188.06 1681.42 1180.66 1685.66L1170.36 1673.94V1616.87H1237.27L1237.27 1616.87ZM1289.91 1646.5C1286.42 1653.64 1284.68 1663.07 1284.68 1674.78C1284.68 1686.5 1286.42 1695.93 1289.91 1703.07C1293.4 1710.21 1298.84 1713.78 1306.24 1713.78C1313.64 1713.78 1319.09 1710.21 1322.58 1703.07C1326.06 1695.93 1327.81 1686.5 1327.81 1674.78C1327.81 1663.07 1326.06 1653.64 1322.58 1646.5C1319.09 1639.35 1313.64 1635.78 1306.24 1635.78C1298.84 1635.78 1293.4 1639.35 1289.91 1646.5ZM1306.24 1735.21C1290.92 1735.21 1279.45 1729.72 1271.84 1718.72C1264.23 1707.73 1260.42 1693.06 1260.42 1674.7C1260.42 1656.34 1264.23 1641.67 1271.84 1630.68C1279.45 1619.69 1290.92 1614.19 1306.24 1614.19C1321.57 1614.19 1333.04 1619.69 1340.65 1630.68C1348.26 1641.67 1352.07 1656.34 1352.07 1674.7C1352.07 1693.06 1348.26 1707.73 1340.65 1718.72C1333.04 1729.72 1321.57 1735.21 1306.24 1735.21ZM1402.65 1679.3C1409.2 1672.27 1413.88 1666.67 1416.68 1662.48C1419.48 1658.3 1420.88 1654.25 1420.88 1650.35C1420.88 1646.44 1419.67 1643.18 1417.24 1640.55C1414.8 1637.93 1411.69 1636.62 1407.88 1636.62C1400.9 1636.62 1394.3 1641.87 1388.06 1652.36L1368.24 1639.97C1373.42 1631.49 1379.1 1625.07 1385.29 1620.72C1391.47 1616.37 1399.35 1614.19 1408.91 1614.19C1418.48 1614.19 1426.88 1617.4 1434.12 1623.82C1441.36 1630.23 1444.98 1638.96 1444.98 1650.01C1444.98 1656.04 1443.53 1661.81 1440.62 1667.34C1437.72 1672.86 1432.35 1679.92 1424.53 1688.51L1404.55 1710.44H1448.31V1733.87H1370.14V1714.46L1402.65 1679.31L1402.65 1679.3ZM1517.76 1642.31C1527.7 1642.31 1536.55 1646.69 1544.32 1655.45C1552.09 1664.21 1555.98 1675.23 1555.98 1688.51C1555.98 1701.79 1552.09 1712.89 1544.32 1721.82C1536.55 1730.75 1527.46 1735.21 1517.05 1735.21C1506.64 1735.21 1498.26 1730.8 1491.92 1721.99V1766.35H1468.13V1643.82H1491.92V1653.86C1499.21 1646.16 1507.83 1642.31 1517.76 1642.31L1517.76 1642.31ZM1491.6 1688.93C1491.6 1696.24 1493.53 1702.21 1497.39 1706.84C1501.25 1711.47 1505.93 1713.79 1511.42 1713.79C1516.92 1713.79 1521.73 1711.47 1525.85 1706.84C1529.97 1702.21 1532.03 1696.27 1532.03 1689.01C1532.03 1681.76 1530.02 1675.68 1526.01 1670.77C1521.99 1665.86 1517.18 1663.4 1511.58 1663.4C1505.98 1663.4 1501.25 1665.83 1497.39 1670.68C1493.53 1675.54 1491.6 1681.62 1491.6 1688.93H1491.6ZM1618.61 1665.91C1611.53 1665.91 1606.24 1668.56 1602.75 1673.86C1599.26 1679.16 1597.52 1686.17 1597.52 1694.87V1733.87H1573.74V1643.82H1597.52V1655.7C1600.58 1652.02 1604.42 1648.89 1609.01 1646.33C1613.61 1643.76 1618.29 1642.42 1623.05 1642.31L1623.21 1665.91H1618.61L1618.61 1665.91ZM1656.66 1688.84C1656.66 1696.21 1658.64 1702.21 1662.61 1706.84C1666.57 1711.47 1671.65 1713.79 1677.83 1713.79C1684.01 1713.79 1689.09 1711.47 1693.05 1706.84C1697.02 1702.21 1699 1696.21 1699 1688.84C1699 1681.48 1697.02 1675.45 1693.05 1670.77C1689.09 1666.08 1684.01 1663.74 1677.83 1663.74C1671.65 1663.74 1666.57 1666.08 1662.61 1670.77C1658.64 1675.45 1656.66 1681.48 1656.66 1688.84ZM1722.94 1688.84C1722.94 1701.9 1718.66 1712.89 1710.1 1721.82C1701.54 1730.75 1690.78 1735.21 1677.83 1735.21C1664.88 1735.21 1654.13 1730.75 1645.56 1721.82C1637 1712.89 1632.72 1701.9 1632.72 1688.84C1632.72 1675.79 1637 1664.77 1645.56 1655.79C1654.13 1646.8 1664.88 1642.31 1677.83 1642.31C1690.78 1642.31 1701.54 1646.8 1710.1 1655.79C1718.66 1664.77 1722.94 1675.79 1722.94 1688.84ZM1790.17 1642.31C1800.11 1642.31 1808.96 1646.69 1816.73 1655.45C1824.5 1664.21 1828.38 1675.23 1828.38 1688.51C1828.38 1701.79 1824.5 1712.89 1816.73 1721.82C1808.96 1730.75 1799.87 1735.21 1789.46 1735.21C1779.04 1735.21 1770.67 1730.8 1764.32 1721.99V1766.34H1740.54V1643.82H1764.32V1653.86C1771.62 1646.16 1780.23 1642.31 1790.17 1642.31L1790.17 1642.31ZM1764.01 1688.93C1764.01 1696.24 1765.94 1702.21 1769.8 1706.84C1773.65 1711.47 1778.33 1713.78 1783.83 1713.78C1789.32 1713.78 1794.13 1711.47 1798.26 1706.84C1802.38 1702.21 1804.44 1696.27 1804.44 1689.01C1804.44 1681.76 1802.43 1675.68 1798.41 1670.77C1794.4 1665.86 1789.59 1663.4 1783.99 1663.4C1778.38 1663.4 1773.65 1665.83 1769.79 1670.68C1765.94 1675.54 1764.01 1681.62 1764.01 1688.93H1764.01ZM1920.03 1720.82C1910.41 1730.41 1899.13 1735.21 1886.18 1735.21C1873.23 1735.21 1862.53 1731 1854.07 1722.57C1845.61 1714.15 1841.39 1702.85 1841.39 1688.68C1841.39 1674.5 1845.69 1663.23 1854.31 1654.86C1862.92 1646.49 1873.1 1642.31 1884.83 1642.31C1896.56 1642.31 1906.53 1646.05 1914.72 1653.52C1922.91 1661 1927.01 1671.27 1927.01 1684.32V1697.71H1864.85C1865.59 1702.62 1868.02 1706.64 1872.15 1709.77C1876.27 1712.89 1880.92 1714.45 1886.1 1714.45C1894.45 1714.45 1901.32 1711.5 1906.71 1705.58L1920.03 1720.81L1920.03 1720.82ZM1902.91 1679.8C1902.38 1674.45 1900.48 1670.32 1897.2 1667.42C1893.92 1664.52 1889.93 1663.07 1885.23 1663.07C1880.52 1663.07 1876.22 1664.57 1872.31 1667.59C1868.39 1670.6 1866.12 1674.67 1865.49 1679.8H1902.91H1902.91ZM1989 1665.91C1981.92 1665.91 1976.64 1668.56 1973.15 1673.86C1969.66 1679.16 1967.92 1686.17 1967.92 1694.87V1733.87H1944.13V1643.82H1967.92V1655.7C1970.98 1652.02 1974.81 1648.89 1979.41 1646.33C1984.01 1643.76 1988.69 1642.42 1993.44 1642.31L1993.6 1665.91H1989L1989 1665.91ZM2037.68 1661.89V1702.23C2037.68 1705.69 2038.53 1708.4 2040.22 1710.35C2041.91 1712.31 2043.92 1713.28 2046.24 1713.28C2050.68 1713.28 2054.44 1711.16 2057.5 1706.92L2066.38 1724.5C2058.98 1731.64 2051.19 1735.21 2042.99 1735.21C2034.8 1735.21 2027.88 1732.37 2022.22 1726.67C2016.57 1720.98 2013.74 1713.23 2013.74 1703.41V1661.89H2003.75V1643.82H2013.74V1616.87H2037.68V1643.82H2058.3V1661.89H2037.68V1661.89ZM2102.85 1733.87H2079.07V1643.82H2102.85V1733.87ZM2081.05 1632.35C2078.35 1629.5 2077.01 1626.02 2077.01 1621.89C2077.01 1617.76 2078.35 1614.27 2081.05 1611.43C2083.74 1608.58 2087.05 1607.16 2090.96 1607.16C2094.87 1607.16 2098.17 1608.58 2100.87 1611.43C2103.56 1614.27 2104.91 1617.76 2104.91 1621.89C2104.91 1626.02 2103.56 1629.5 2100.87 1632.35C2098.17 1635.2 2094.87 1636.62 2090.96 1636.62C2087.05 1636.62 2083.74 1635.2 2081.05 1632.35ZM2199.26 1720.82C2189.64 1730.41 2178.35 1735.21 2165.4 1735.21C2152.45 1735.21 2141.75 1731 2133.29 1722.57C2124.84 1714.15 2120.61 1702.85 2120.61 1688.68C2120.61 1674.5 2124.92 1663.23 2133.53 1654.86C2142.15 1646.49 2152.32 1642.31 2164.05 1642.31C2175.79 1642.31 2185.75 1646.05 2193.94 1653.52C2202.14 1661 2206.23 1671.27 2206.23 1684.32V1697.71H2144.08C2144.82 1702.62 2147.25 1706.64 2151.37 1709.77C2155.49 1712.89 2160.14 1714.45 2165.32 1714.45C2173.68 1714.45 2180.55 1711.5 2185.94 1705.58L2199.26 1720.81L2199.26 1720.82ZM2182.13 1679.8C2181.6 1674.45 2179.7 1670.32 2176.42 1667.42C2173.15 1664.52 2169.16 1663.07 2164.45 1663.07C2159.75 1663.07 2155.44 1664.57 2151.53 1667.59C2147.62 1670.6 2145.34 1674.67 2144.71 1679.8H2182.13H2182.13ZM2287.57 1705.83C2287.57 1714.71 2284.48 1721.82 2278.3 1727.18C2272.11 1732.53 2264.27 1735.21 2254.75 1735.21C2248.41 1735.21 2241.8 1734.01 2234.93 1731.61C2228.06 1729.21 2221.88 1725.67 2216.38 1720.98L2226.85 1705.25C2235.72 1712.5 2245.19 1716.13 2255.23 1716.13C2258.29 1716.13 2260.72 1715.49 2262.52 1714.2C2264.32 1712.92 2265.22 1711.22 2265.22 1709.1C2265.22 1706.98 2263.98 1705.02 2261.49 1703.24C2259.01 1701.45 2255.41 1699.78 2250.71 1698.22C2246.01 1696.66 2242.41 1695.32 2239.93 1694.2C2237.45 1693.08 2234.62 1691.47 2231.45 1689.35C2225 1685.11 2221.77 1678.83 2221.77 1670.51C2221.77 1662.2 2224.94 1655.42 2231.29 1650.18C2237.63 1644.93 2245.82 1642.31 2255.86 1642.31C2265.91 1642.31 2275.95 1645.88 2285.99 1653.02L2277.11 1669.76C2269.71 1664.41 2262.34 1661.73 2254.99 1661.73C2247.65 1661.73 2243.97 1663.85 2243.97 1668.09C2243.97 1670.43 2245.13 1672.27 2247.46 1673.61C2249.79 1674.95 2253.64 1676.51 2259.04 1678.3C2264.43 1680.08 2268.26 1681.45 2270.53 1682.4C2272.8 1683.35 2275.53 1684.83 2278.7 1686.83C2284.62 1690.63 2287.58 1696.96 2287.58 1705.83L2287.57 1705.83ZM2307.47 1730.94C2304.78 1728.1 2303.43 1724.61 2303.43 1720.48C2303.43 1716.35 2304.78 1712.86 2307.47 1710.02C2310.17 1707.17 2313.47 1705.75 2317.38 1705.75C2321.29 1705.75 2324.6 1707.17 2327.29 1710.02C2329.99 1712.86 2331.34 1716.35 2331.34 1720.48C2331.34 1724.61 2329.99 1728.1 2327.29 1730.94C2324.6 1733.79 2321.29 1735.21 2317.38 1735.21C2313.47 1735.21 2310.17 1733.79 2307.47 1730.94ZM2392.38 1712.95C2400.31 1712.95 2407.44 1708.76 2413.79 1700.39L2427.9 1717.13C2416.91 1729.18 2405.01 1735.21 2392.22 1735.21C2379.43 1735.21 2368.62 1730.94 2359.8 1722.41C2350.97 1713.87 2346.56 1702.71 2346.56 1688.93C2346.56 1675.15 2351.02 1663.93 2359.96 1655.28C2368.89 1646.63 2379.49 1642.31 2391.75 1642.31C2397.88 1642.31 2404.09 1643.65 2410.38 1646.33C2416.67 1649.01 2422.19 1652.97 2426.95 1658.21L2414.58 1675.29C2411.83 1671.83 2408.48 1669.15 2404.51 1667.25C2400.55 1665.35 2396.61 1664.41 2392.7 1664.41C2386.46 1664.41 2381.1 1666.55 2376.61 1670.85C2372.11 1675.15 2369.87 1681.12 2369.87 1688.76C2369.87 1696.41 2372.11 1702.35 2376.61 1706.59C2381.1 1710.83 2386.36 1712.95 2392.38 1712.95L2392.38 1712.95ZM2461.36 1688.84C2461.36 1696.21 2463.34 1702.21 2467.3 1706.84C2471.27 1711.47 2476.34 1713.78 2482.52 1713.78C2488.71 1713.78 2493.78 1711.47 2497.75 1706.84C2501.71 1702.21 2503.69 1696.21 2503.69 1688.84C2503.69 1681.48 2501.71 1675.45 2497.75 1670.76C2493.78 1666.08 2488.71 1663.73 2482.52 1663.73C2476.34 1663.73 2471.27 1666.08 2467.3 1670.76C2463.34 1675.45 2461.36 1681.48 2461.36 1688.84ZM2527.63 1688.84C2527.63 1701.9 2523.35 1712.89 2514.79 1721.82C2506.23 1730.75 2495.47 1735.21 2482.52 1735.21C2469.58 1735.21 2458.82 1730.75 2450.26 1721.82C2441.69 1712.89 2437.41 1701.9 2437.41 1688.84C2437.41 1675.79 2441.69 1664.77 2450.26 1655.78C2458.82 1646.8 2469.58 1642.31 2482.52 1642.31C2495.47 1642.31 2506.23 1646.8 2514.79 1655.78C2523.35 1664.77 2527.63 1675.79 2527.63 1688.84ZM2623.56 1685.33V1733.87H2599.62V1684.66C2599.62 1677.52 2598.59 1672.27 2596.53 1668.92C2594.47 1665.57 2591.14 1663.9 2586.54 1663.9C2581.94 1663.9 2577.87 1665.71 2574.33 1669.34C2570.79 1672.97 2569.02 1678.3 2569.02 1685.33V1733.87H2545.23V1643.81H2569.02V1654.02C2575.57 1646.21 2583.08 1642.31 2591.53 1642.31C2596.92 1642.31 2601.81 1643.98 2606.2 1647.33C2610.59 1650.68 2613.89 1654.75 2616.11 1659.55C2619.39 1654.08 2623.8 1649.84 2629.35 1646.83C2634.9 1643.81 2640.48 1642.31 2646.08 1642.31C2656.12 1642.31 2664.21 1645.46 2670.34 1651.76C2676.47 1658.07 2679.54 1667.19 2679.54 1679.13V1733.87H2655.59V1684.66C2655.59 1670.82 2650.78 1663.9 2641.16 1663.9C2636.41 1663.9 2632.29 1665.71 2628.8 1669.34C2625.31 1672.97 2623.56 1678.3 2623.56 1685.33L2623.56 1685.33Z" fill="#0B2A47"/>
<path fill-rule="evenodd" clip-rule="evenodd" d="M2272.45 918.018L2138.34 918.654C2110.31 971.47 2083.14 1126.88 2013.57 1167.71C1952.64 1203.46 1921.69 1147.93 1923.23 1089C1924.77 1030.03 1944.77 964.844 1945.09 918.672L1816.63 918.412C1804.2 1255.14 2021.83 1264.42 2179.67 1086.41C2200.98 1062.37 2268.43 965.123 2272.45 918.018Z" fill="#0B2A47"/>
<path fill-rule="evenodd" clip-rule="evenodd" d="M1863.25 721.098L1996.08 720.777L2009.38 686.167C2030.55 622.887 2070.27 509.453 2121.26 480.093C2178.24 447.271 2210.46 493.151 2209.58 555.109C2208.72 615.897 2190.48 667.972 2189.54 721.085L2318.15 720.878C2330.84 398.291 2101.97 388.027 1957.36 559.163C1929.75 591.84 1872.41 673.216 1863.25 721.096V721.098Z" fill="#0B2A47"/>
<path fill-rule="evenodd" clip-rule="evenodd" d="M2338.14 1180.94C2417.55 1187.11 2604.13 1184.37 2693.66 1182.3C2699.69 1157.87 2724.5 1112.01 2735.96 1088.34C2747.35 1064.82 2774.56 1018.18 2779.06 998.569C2750.29 998.794 2761.34 1026.52 2734.39 1045.9C2700.32 1070.42 2496.57 1060.2 2428.91 1059.61C2441.79 1033.56 2482.54 1002.16 2505.47 984.407C2522.67 971.082 2583.64 931.155 2590.81 918.872C2530.05 915.756 2538 923.54 2503.25 955.835C2441.83 1012.89 2357.86 1098.07 2338.14 1180.94L2338.14 1180.94Z" fill="#0B2A47"/>
<path fill-rule="evenodd" clip-rule="evenodd" d="M2471.63 720.983L2537.06 720.256C2619.13 623.633 2487.41 587.233 2482.29 575.728C2475.78 498.771 2612.32 445.519 2672.24 479.522C2708.66 500.19 2719.37 539.704 2716.52 590.901C2713.47 645.511 2692.19 679.036 2686.66 720.455L2819.71 720.934C2842.26 651.767 2858.28 587.584 2810.2 523.317C2719.27 401.747 2459.76 428.392 2443.72 621.704C2438.94 679.255 2450.33 690.276 2471.63 720.982L2471.63 720.983Z" fill="#0B2A47"/>
<path fill-rule="evenodd" clip-rule="evenodd" d="M1312.81 1129.73C1339.95 1107.77 1384.03 1097.61 1378.74 1043.76C1374.04 995.836 1322 974.963 1283.03 1002.44C1200.17 1060.88 1267.21 1172.37 1345.91 1191.83C1499.65 1229.85 1692.63 1064.3 1696.27 918.856L1564.62 918.553C1548.1 954.698 1539.66 1056.26 1487.08 1125.18C1467.44 1150.93 1441.52 1173.06 1402.97 1179.05C1382.75 1182.2 1360.61 1179.86 1343.25 1173.74C1320.06 1165.57 1312.8 1157.76 1312.81 1129.73V1129.73Z" fill="#0B2A47"/>
<path fill-rule="evenodd" clip-rule="evenodd" d="M832.209 1165.69C779.779 1170.92 778.768 1155.73 766.347 1176.27C784.677 1190.23 1002.38 1184.04 1020.06 1182.96C1046.13 1179.87 1028.76 1189.53 1034.6 1171.14C1019.46 1162.58 986.922 1166.46 965.709 1166.13C973.778 1091.63 1020.43 993.04 1026.05 918.746L897.102 918.563L832.209 1165.69V1165.69Z" fill="#0B2A47"/>
<path fill-rule="evenodd" clip-rule="evenodd" d="M808.82 642.457C830.488 650.381 956.251 578.523 985.579 571.084L948.729 720.105L1080.52 721.141C1090.05 695.122 1149.85 471.491 1150 448.06C1040.89 507.174 970.47 565.749 847.594 614.019C825.289 622.785 809.164 621.712 808.819 642.458L808.82 642.457Z" fill="#0B2A47"/>
<path fill-rule="evenodd" clip-rule="evenodd" d="M1399.31 721.062C1413.52 711.513 1417.5 678.388 1421.85 661.662C1427.46 640.104 1433.42 619.055 1439.07 596.752C1496.37 598.868 1546.74 625.537 1632.99 586.307C1679.54 565.137 1726.32 516.504 1736.21 455.843C1698.28 465.889 1689.86 499.093 1598.45 490.757C1539.19 485.355 1510.43 462.136 1460.32 448.313C1453.88 495.267 1397.01 684.942 1395.66 700.698C1394.71 711.653 1394.07 694.06 1395.59 709.01C1396.92 722.129 1393.86 712.302 1399.31 721.062H1399.31Z" fill="#0B2A47"/>
<path d="M934.11 898.117H905.796L934.655 752.695H990.545C1000.52 752.695 1008.37 753.948 1014.14 756.418C1019.95 758.889 1024.53 762.985 1027.9 768.705C1031.27 774.426 1032.97 781.264 1032.97 789.185C1032.97 796.531 1031.62 803.674 1028.93 810.613C1026.23 817.586 1022.93 823.138 1019.02 827.301C1015.11 831.465 1010.91 834.613 1006.39 836.779C1001.9 838.912 995.836 840.536 988.172 841.687C983.747 842.331 975.41 842.669 963.225 842.669H945.108L934.11 898.117ZM949.918 818.297H958.64C973.582 818.297 983.554 817.315 988.556 815.352C993.559 813.389 997.502 810.24 1000.39 805.907C1003.24 801.574 1004.69 796.801 1004.69 791.623C1004.69 788.135 1003.95 785.293 1002.47 783.058C1001 780.824 998.945 779.2 996.284 778.183C993.623 777.168 987.69 776.66 978.488 776.66H958.19L949.918 818.296V818.297ZM1137.83 898.117H1109.52L1138.38 752.695H1199.5C1210.01 752.695 1218.19 753.845 1224.06 756.113C1229.89 758.415 1234.61 762.579 1238.23 768.672C1241.82 774.765 1243.62 782.11 1243.62 790.776C1243.62 803.166 1240.12 813.354 1233.1 821.377C1226.11 829.434 1215.5 834.409 1201.29 836.305C1204.91 839.758 1208.31 844.294 1211.52 849.913C1217.84 861.287 1224.89 877.366 1232.65 898.116H1202.25C1199.81 889.924 1195 877.162 1187.85 859.797C1183.98 850.42 1179.84 844.09 1175.45 840.875C1172.75 838.945 1168.04 837.997 1161.34 837.997H1149.76L1137.83 898.116V898.117ZM1154.06 816.266H1169.1C1184.33 816.266 1194.43 815.318 1199.4 813.389C1204.4 811.459 1208.28 808.446 1211.1 804.316C1213.92 800.221 1215.33 795.887 1215.33 791.385C1215.33 786.071 1213.32 782.11 1209.24 779.436C1206.74 777.845 1201.32 777.066 1192.99 777.066H1161.82L1154.06 816.265L1154.06 816.266ZM1331.55 841.045C1331.55 832.447 1332.77 823.375 1335.21 813.829C1338.42 801.034 1343.29 789.965 1349.83 780.555C1356.37 771.145 1364.64 763.731 1374.59 758.248C1384.56 752.797 1395.88 750.056 1408.61 750.056C1425.67 750.056 1439.42 755.641 1449.91 766.846C1460.39 778.05 1465.65 792.877 1465.65 811.36C1465.65 826.728 1462.25 841.588 1455.42 855.941C1448.59 870.327 1439.29 881.397 1427.59 889.149C1415.89 896.9 1402.64 900.759 1387.83 900.759C1375 900.759 1364.23 897.679 1355.51 891.517C1346.82 885.356 1340.63 877.74 1337.01 868.634C1333.38 859.528 1331.56 850.321 1331.56 841.046L1331.55 841.045ZM1359.64 840.469C1359.64 850.489 1362.53 858.884 1368.27 865.62C1374.04 872.39 1381.61 875.775 1391 875.775C1398.63 875.775 1405.98 873.1 1413 867.786C1420.05 862.438 1425.86 854.347 1430.47 843.516C1435.06 832.649 1437.37 822.122 1437.37 811.831C1437.37 800.356 1434.45 791.352 1428.65 784.818C1422.81 778.286 1415.4 775.035 1406.39 775.035C1392.57 775.035 1381.32 781.873 1372.63 795.515C1363.97 809.191 1359.64 824.153 1359.64 840.469ZM1575.49 898.117H1547.17L1576.03 752.695H1631.92C1641.89 752.695 1649.75 753.948 1655.52 756.418C1661.33 758.889 1665.91 762.985 1669.28 768.705C1672.64 774.426 1674.34 781.264 1674.34 789.185C1674.34 796.531 1673 803.674 1670.3 810.613C1667.61 817.586 1664.31 823.138 1660.4 827.301C1656.48 831.465 1652.28 834.613 1647.76 836.779C1643.27 838.912 1637.21 840.536 1629.55 841.687C1625.12 842.331 1616.79 842.669 1604.6 842.669H1586.49L1575.49 898.117ZM1591.29 818.297H1600.02C1614.96 818.297 1624.93 817.315 1629.93 815.352C1634.94 813.389 1638.88 810.24 1641.77 805.907C1644.62 801.574 1646.06 796.801 1646.06 791.623C1646.06 788.135 1645.32 785.293 1643.85 783.058C1642.37 780.824 1640.32 779.2 1637.66 778.183C1635 777.168 1629.07 776.66 1619.86 776.66H1599.57L1591.29 818.296V818.297ZM1750.32 898.117L1779.18 752.695H1881.15L1876.34 777.067H1802.62L1795.85 809.97H1867.29L1862.48 834.343H1790.82L1782.67 873.745H1862.68L1857.87 898.118H1750.32V898.117ZM1982.36 898.117H1954.04L1982.9 752.695H2044.02C2054.54 752.695 2062.71 753.845 2068.58 756.113C2074.42 758.415 2079.13 762.579 2082.75 768.672C2086.34 774.765 2088.14 782.11 2088.14 790.776C2088.14 803.166 2084.64 813.354 2077.62 821.377C2070.63 829.434 2060.02 834.409 2045.81 836.305C2049.44 839.758 2052.84 844.294 2056.04 849.913C2062.36 861.287 2069.41 877.366 2077.17 898.116H2046.78C2044.34 889.924 2039.53 877.162 2032.38 859.797C2028.5 850.42 2024.36 844.09 2019.97 840.875C2017.28 838.945 2012.56 837.997 2005.86 837.997H1994.29L1982.36 898.116V898.117ZM1998.58 816.266H2013.62C2028.85 816.266 2038.95 815.318 2043.92 813.389C2048.93 811.459 2052.8 808.446 2055.63 804.316C2058.45 800.221 2059.86 795.887 2059.86 791.385C2059.86 786.071 2057.84 782.11 2053.77 779.436C2051.26 777.845 2045.85 777.066 2037.51 777.066H2006.34L1998.58 816.265L1998.58 816.266ZM2223.69 898.117H2195.38L2219.4 777.066H2178.96L2183.58 752.694H2292.09L2287.47 777.066H2247.71L2223.69 898.117ZM2354.95 898.117L2383.81 752.695H2412.09L2383.26 898.117H2354.95ZM2484.38 898.117L2513.24 752.695H2615.21L2610.4 777.067H2536.68L2529.91 809.97H2601.35L2596.54 834.343H2524.88L2516.73 873.745H2596.74L2591.93 898.118H2484.38V898.117ZM2691.76 851.268L2718.69 849.778C2719.08 858.816 2720.55 864.909 2723.12 868.057C2727.26 873.203 2734.89 875.775 2746.05 875.775C2755.31 875.775 2762.05 874.015 2766.18 870.494C2770.32 866.973 2772.37 862.742 2772.37 857.766C2772.37 853.467 2770.67 849.811 2767.3 846.832C2764.93 844.632 2758.39 841.077 2747.71 836.203C2737.04 831.294 2729.24 827.198 2724.34 823.915C2719.4 820.632 2715.55 816.367 2712.73 811.12C2709.91 805.873 2708.5 799.746 2708.5 792.739C2708.5 780.451 2712.7 770.262 2721.1 762.172C2729.47 754.081 2741.62 750.053 2757.56 750.053C2773.72 750.053 2786.22 754.047 2795.07 762.069C2803.96 770.092 2808.83 780.754 2809.7 794.058L2782.57 795.344C2781.9 788.405 2779.49 783.09 2775.42 779.367C2771.38 775.677 2765.35 773.815 2757.4 773.815C2749.57 773.815 2743.99 775.271 2740.66 778.182C2737.29 781.094 2735.63 784.783 2735.63 789.218C2735.63 793.415 2737.17 796.834 2740.21 799.576C2743.29 802.352 2750.09 806.143 2760.57 810.984C2776.41 818.228 2786.48 824.084 2790.81 828.586C2797.25 835.221 2800.46 843.717 2800.46 854.144C2800.46 867.008 2795.65 877.975 2786.03 887.08C2776.41 896.186 2763.04 900.756 2745.89 900.756C2734.05 900.756 2723.79 898.657 2715.1 894.459C2706.45 890.261 2700.32 884.439 2696.73 876.992C2693.17 869.545 2691.5 860.947 2691.76 851.266L2691.76 851.268Z" fill="#0B2A47"/>
<path d="M1932.1 346.108V132H327V1411.9H1931.15V1275.57" stroke="#0B2A47" stroke-width="20.2598" stroke-miterlimit="2.61313"/>
</svg>
